<svg width="19" height="18" viewBox="0 0 19 18" fill="none" xmlns="http://www.w3.org/2000/svg">
<path d="M9.5 12L12.5 9M12.5 9L9.5 6M12.5 9H1.5M6.5 4.24859V4.2002C6.5 3.08009 6.5 2.51962 6.71799 2.0918C6.90973 1.71547 7.21547 1.40973 7.5918 1.21799C8.01962 1 8.58009 1 9.7002 1H14.3002C15.4203 1 15.9796 1 16.4074 1.21799C16.7837 1.40973 17.0905 1.71547 17.2822 2.0918C17.5 2.5192 17.5 3.07899 17.5 4.19691V13.8036C17.5 14.9215 17.5 15.4805 17.2822 15.9079C17.0905 16.2842 16.7837 16.5905 16.4074 16.7822C15.98 17 15.421 17 14.3031 17H9.69691C8.57899 17 8.0192 17 7.5918 16.7822C7.21547 16.5905 6.90973 16.2839 6.71799 15.9076C6.5 15.4798 6.5 14.9201 6.5 13.8V13.75" stroke="white" stroke-width="2" stroke-linecap="round" stroke-linejoin="round"/>
</svg>
