<svg width="74" height="23" viewBox="0 0 74 23" fill="none" xmlns="http://www.w3.org/2000/svg">
<path d="M15.2353 17.88C15.5339 17.88 15.7473 17.944 15.8753 18.072C16.0246 18.2 16.0993 18.4133 16.0993 18.712V22.168C16.0993 22.7227 15.8113 23 15.2353 23H1.76325C1.48592 23 1.27258 22.936 1.12325 22.808C0.99525 22.6587 0.93125 22.4453 0.93125 22.168V1.432C0.93125 1.13333 0.99525 0.919999 1.12325 0.792C1.27258 0.663999 1.48592 0.599998 1.76325 0.599998H15.2033C15.7793 0.599998 16.0673 0.877332 16.0673 1.432V4.888C16.0673 5.18667 15.9926 5.4 15.8433 5.528C15.7153 5.656 15.5019 5.72 15.2033 5.72H6.97925C6.78725 5.72 6.65925 5.76267 6.59525 5.848C6.53125 5.912 6.49925 6.02933 6.49925 6.2V8.696C6.49925 8.888 6.53125 9.016 6.59525 9.08C6.65925 9.144 6.78725 9.176 6.97925 9.176H14.1473C14.4459 9.176 14.6593 9.25067 14.7873 9.4C14.9153 9.528 14.9792 9.74133 14.9792 10.04V13.464C14.9792 13.7413 14.9153 13.9547 14.7873 14.104C14.6593 14.232 14.4459 14.296 14.1473 14.296H6.97925C6.78725 14.296 6.65925 14.3387 6.59525 14.424C6.53125 14.488 6.49925 14.6053 6.49925 14.776V17.4C6.49925 17.5707 6.53125 17.6987 6.59525 17.784C6.65925 17.848 6.78725 17.88 6.97925 17.88H15.2353ZM19.9313 1.432C19.9313 1.13333 19.9953 0.919999 20.1233 0.792C20.2726 0.663999 20.4859 0.599998 20.7633 0.599998H28.6353C31.2166 0.599998 33.4246 1.048 35.2593 1.944C37.0939 2.84 38.4913 4.10933 39.4513 5.752C40.4113 7.39467 40.8913 9.32533 40.8913 11.544C40.8913 13.8693 40.3899 15.896 39.3873 17.624C38.3846 19.3307 36.9126 20.6533 34.9713 21.592C33.0513 22.5307 30.7579 23 28.0913 23H20.7633C20.4859 23 20.2726 22.936 20.1233 22.808C19.9953 22.6587 19.9313 22.4453 19.9313 22.168V1.432ZM25.9792 5.72C25.7873 5.72 25.6593 5.76267 25.5953 5.848C25.5313 5.912 25.4993 6.02933 25.4993 6.2V17.4C25.4993 17.5707 25.5313 17.6987 25.5953 17.784C25.6593 17.848 25.7873 17.88 25.9792 17.88H28.0593C30.3633 17.88 32.1126 17.336 33.3073 16.248C34.5233 15.16 35.1313 13.6453 35.1313 11.704C35.1313 10.488 34.8646 9.432 34.3313 8.536C33.7979 7.64 33.0086 6.94667 31.9633 6.456C30.9393 5.96533 29.6806 5.72 28.1873 5.72H25.9792ZM47.6098 21.976C47.4178 22.3813 47.2151 22.6587 47.0018 22.808C46.7884 22.936 46.4791 23 46.0738 23H42.1698C41.7004 23 41.4657 22.8507 41.4657 22.552C41.4657 22.36 41.5191 22.168 41.6258 21.976L51.8338 1.656C52.1324 1.03733 52.3884 0.610666 52.6018 0.375999C52.8151 0.141332 53.0498 0.0239983 53.3058 0.0239983C53.5618 0.0239983 53.7858 0.141332 53.9778 0.375999C54.1911 0.610666 54.4578 1.03733 54.7778 1.656L65.0498 21.976C65.1564 22.168 65.2098 22.3493 65.2098 22.52C65.2098 22.84 64.9644 23 64.4738 23H60.3778C59.9724 23 59.6631 22.936 59.4498 22.808C59.2578 22.6587 59.0658 22.3813 58.8738 21.976L53.2098 10.328L47.6098 21.976ZM73.0618 22.168C73.0618 22.4667 72.9871 22.68 72.8378 22.808C72.7098 22.936 72.4964 23 72.1978 23H68.3258C68.0484 23 67.8351 22.936 67.6858 22.808C67.5578 22.6587 67.4938 22.4453 67.4938 22.168V1.432C67.4938 1.13333 67.5578 0.919999 67.6858 0.792C67.8351 0.663999 68.0484 0.599998 68.3258 0.599998H72.1978C72.4964 0.599998 72.7098 0.663999 72.8378 0.792C72.9871 0.919999 73.0618 1.13333 73.0618 1.432V22.168Z" fill="white"/>
</svg>
