<svg width="104" height="104" viewBox="0 0 104 104" fill="none" xmlns="http://www.w3.org/2000/svg">
<path d="M48.1787 3.8696C46.341 4.6308 44.6935 6.27825 41.3989 9.57286C38.105 12.8667 36.4569 14.5149 35.6958 16.3524C34.6808 18.8026 34.6808 21.556 35.6958 24.0063C36.457 25.844 38.1043 27.4914 41.399 30.7861C44.6919 34.0789 46.3413 35.7284 48.1785 36.4894C50.6288 37.5043 53.3822 37.5043 55.8325 36.4894C57.6702 35.7282 59.3176 34.0808 62.6123 30.7861C65.907 27.4914 67.5495 25.844 68.3107 24.0063C69.3256 21.556 69.3256 18.8026 68.3107 16.3524C67.5495 14.5146 65.907 12.8676 62.6123 9.57286C59.3176 6.2782 57.6702 4.6308 55.8325 3.8696C53.3822 2.85466 50.6289 2.85466 48.1787 3.8696Z" stroke="white" stroke-width="5" stroke-linecap="round" stroke-linejoin="round"/>
<path d="M16.3574 35.6884C14.5197 36.4497 12.8723 38.097 9.57761 41.3917C6.28384 44.6855 4.63558 46.3338 3.87449 48.1712C2.85955 50.6215 2.85955 53.3749 3.87449 55.8252C4.63569 57.6629 6.28308 59.3103 9.57775 62.6049C12.8706 65.8978 14.5201 67.5472 16.3572 68.3082C18.8075 69.3232 21.5609 69.3232 24.0112 68.3082C25.8489 67.547 27.4963 65.8997 30.791 62.605C34.0857 59.3103 35.7282 57.6629 36.4894 55.8252C37.5043 53.3749 37.5043 50.6215 36.4894 48.1712C35.7282 46.3335 34.0857 44.6864 30.791 41.3917C27.4963 38.097 25.8489 36.4497 24.0112 35.6884C21.5609 34.6735 18.8077 34.6735 16.3574 35.6884Z" stroke="white" stroke-width="5" stroke-linecap="round" stroke-linejoin="round"/>
<path d="M73.2202 41.3917C69.9264 44.6856 68.2782 46.3337 67.5171 48.1712C66.5021 50.6215 66.5021 53.3749 67.5171 55.8252C68.2783 57.6629 69.9256 59.3102 73.2203 62.6049C76.5131 65.8977 78.1626 67.5472 79.9998 68.3082C82.4501 69.3232 85.2035 69.3232 87.6538 68.3082C89.4915 67.547 91.1388 65.8997 94.4335 62.605C97.7282 59.3103 99.3708 57.6629 100.132 55.8252C101.147 53.3749 101.147 50.6215 100.132 48.1712C99.3708 46.3335 97.7282 44.6864 94.4335 41.3917C91.1389 38.097 89.4915 36.4497 87.6538 35.6884C85.2035 34.6735 82.4502 34.6735 80 35.6884C78.1623 36.4496 76.5148 38.0971 73.2202 41.3917Z" stroke="white" stroke-width="5" stroke-linecap="round" stroke-linejoin="round"/>
<path d="M48.1787 67.5097C46.341 68.2709 44.6936 69.9183 41.3989 73.213C38.1051 76.5068 36.4569 78.155 35.6958 79.9925C34.6808 82.4428 34.6808 85.1962 35.6958 87.6465C36.457 89.4842 38.1044 91.1315 41.399 94.4262C44.6919 97.719 46.3413 99.3685 48.1785 100.13C50.6288 101.144 53.3822 101.144 55.8325 100.13C57.6702 99.3683 59.3176 97.7209 62.6123 94.4262C65.907 91.1315 67.5495 89.4842 68.3107 87.6465C69.3256 85.1962 69.3256 82.4428 68.3107 79.9925C67.5495 78.1548 65.907 76.5077 62.6123 73.213C59.3176 69.9183 57.6702 68.2709 55.8325 67.5097C53.3822 66.4948 50.6289 66.4948 48.1787 67.5097Z" stroke="white" stroke-width="5" stroke-linecap="round" stroke-linejoin="round"/>
</svg>
