<svg width="18" height="18" viewBox="0 0 18 18" fill="none" xmlns="http://www.w3.org/2000/svg">
<path d="M8.42607 1.78044C8.15041 1.89462 7.9033 2.14174 7.4091 2.63593C6.91502 3.13001 6.6678 3.37723 6.55363 3.65285C6.40139 4.0204 6.40139 4.43341 6.55363 4.80095C6.66781 5.0766 6.91492 5.32371 7.40912 5.81791C7.90305 6.31184 8.15047 6.55926 8.42605 6.67341C8.79359 6.82565 9.2066 6.82565 9.57414 6.67341C9.8498 6.55922 10.0969 6.31212 10.5911 5.81792C11.0853 5.32371 11.3317 5.07661 11.4459 4.80095C11.5981 4.43341 11.5981 4.0204 11.4459 3.65285C11.3317 3.3772 11.0853 3.13014 10.5911 2.63593C10.0969 2.14173 9.8498 1.89462 9.57414 1.78044C9.2066 1.6282 8.79361 1.6282 8.42607 1.78044Z" stroke="white" stroke-width="0.75" stroke-linecap="round" stroke-linejoin="round"/>
<path d="M3.65287 6.55327C3.37722 6.66745 3.13011 6.91456 2.63591 7.40876C2.14184 7.90282 1.8946 8.15006 1.78044 8.42568C1.6282 8.79322 1.6282 9.20623 1.78044 9.57378C1.89462 9.84943 2.14173 10.0965 2.63593 10.5907C3.12985 11.0847 3.37728 11.3321 3.65285 11.4462C4.0204 11.5985 4.43341 11.5985 4.80095 11.4462C5.07661 11.3321 5.32371 11.0849 5.81791 10.5907C6.31212 10.0965 6.55849 9.84943 6.67268 9.57378C6.82492 9.20623 6.82492 8.79322 6.67268 8.42568C6.55849 8.15002 6.31212 7.90296 5.81791 7.40876C5.32371 6.91455 5.0766 6.66745 4.80095 6.55327C4.43341 6.40103 4.02042 6.40103 3.65287 6.55327Z" stroke="white" stroke-width="0.75" stroke-linecap="round" stroke-linejoin="round"/>
<path d="M12.1823 7.40876C11.6882 7.90283 11.441 8.15006 11.3268 8.42568C11.1746 8.79322 11.1746 9.20623 11.3268 9.57378C11.441 9.84943 11.6881 10.0965 12.1823 10.5907C12.6762 11.0847 12.9237 11.3321 13.1992 11.4462C13.5668 11.5985 13.9798 11.5985 14.3473 11.4462C14.623 11.3321 14.8701 11.0849 15.3643 10.5907C15.8585 10.0965 16.1049 9.84943 16.2191 9.57378C16.3713 9.20623 16.3713 8.79322 16.2191 8.42568C16.1049 8.15003 15.8585 7.90296 15.3643 7.40876C14.8701 6.91455 14.623 6.66745 14.3473 6.55327C13.9798 6.40103 13.5668 6.40103 13.1993 6.55327C12.9236 6.66745 12.6765 6.91456 12.1823 7.40876Z" stroke="white" stroke-width="0.75" stroke-linecap="round" stroke-linejoin="round"/>
<path d="M8.42607 11.3265C8.15041 11.4406 7.90331 11.6877 7.4091 12.182C6.91503 12.676 6.6678 12.9233 6.55363 13.1989C6.40139 13.5664 6.40139 13.9794 6.55363 14.347C6.66781 14.6226 6.91492 14.8697 7.40912 15.3639C7.90305 15.8579 8.15047 16.1053 8.42605 16.2194C8.79359 16.3717 9.2066 16.3717 9.57414 16.2194C9.8498 16.1052 10.0969 15.8581 10.5911 15.3639C11.0853 14.8697 11.3317 14.6226 11.4459 14.347C11.5981 13.9794 11.5981 13.5664 11.4459 13.1989C11.3317 12.9232 11.0853 12.6762 10.5911 12.182C10.0969 11.6877 9.8498 11.4406 9.57414 11.3265C9.2066 11.1742 8.79361 11.1742 8.42607 11.3265Z" stroke="white" stroke-width="0.75" stroke-linecap="round" stroke-linejoin="round"/>
</svg>
