<svg width="16" height="14" viewBox="0 0 16 14" fill="none" xmlns="http://www.w3.org/2000/svg">
<path d="M1.25 2.5H1.26439M1.26439 2.5H5.75M1.26439 2.5C1.25 2.73578 1.25 3.02643 1.25 3.40015V10.6001C1.25 11.4402 1.25 11.8597 1.41349 12.1805C1.5573 12.4628 1.7866 12.6929 2.06885 12.8367C2.3894 13 2.80925 13 3.64771 13L5.75 13M1.26439 2.5C1.28235 2.20576 1.32273 1.99698 1.41349 1.81885C1.5573 1.5366 1.7866 1.3073 2.06885 1.16349C2.38972 1 2.81007 1 3.65015 1H12.3501C13.1902 1 13.6097 1 13.9305 1.16349C14.2128 1.3073 14.4429 1.5366 14.5867 1.81885C14.6774 1.99698 14.7178 2.20576 14.7357 2.5M5.75 2.5H14.7357M5.75 2.5V13M14.7357 2.5H14.75M14.7357 2.5C14.75 2.73526 14.75 3.02515 14.75 3.39768L14.75 10.6023C14.75 11.4407 14.75 11.86 14.5867 12.1805C14.4429 12.4628 14.2128 12.6929 13.9305 12.8367C13.61 13 13.1908 13 12.3523 13H5.75" stroke="white" stroke-width="1.5" stroke-linecap="round" stroke-linejoin="round"/>
</svg>
